Genre:Action
Language:English/Japanese
IMDb:http://www.imdb.com/title/tt1243972/
Source:DVDR-SADPANDA
Subtitles:English.where needed
..............................................
General
Complete name :Samurai.Avenger.The.Blind.Wolf.2009.DVDRIP.H264.FEEL-FREE
Format : MPEG-4
Format profile : Base Media
Codec ID : isom
File size : 1.66 GiB
Duration : 1h 31mn
Overall bit rate : 2 594 Kbps
...............................................
Video
ID : 1
Format : MPEG-4 Visual
Format profile : Simple@L1
Format settings, BVOP : No
Format settings, QPel : No
Format settings, GMC : No warppoints
Format settings, Matrix : Default (H.263)
Codec ID : 20
Duration : 1h 31mn
Bit rate mode : Variable
Bit rate : 2 354 Kbps
Width : 652 pixels
Height : 352 pixels
Display aspect ratio : 1.852
Frame rate mode : Constant
Frame rate : 23.976 fps
Resolution : 24 bits
Colorimetry : 4:2:0
Scan type : Progressive
Bits/(Pixel*Frame) : 0.428
Stream size : 1.50 GiB (91%)
..................................................
Audio
ID : 2
Format : AAC
Format/Info : Advanced Audio Codec
Format version : Version 4
Format profile : LC
Format settings, SBR : No
Codec ID : 40
Duration : 1h 31mn
Bit rate mode : Variable
Bit rate : 235 Kbps
Channel(s) : 6 channels
Channel positions : Front: L C R, Rear: L R, LFE
Sampling rate : 48.0 KHz
Resolution : 16 bits
Stream size : 154 MiB (9%)
..................................................
Plot:
Blind Swordsman vs. Seven Assassins. A classic tale of revenge.
...................................................
 
http://www.starshare.ro/bitbucket/Samurai.Avenger.The.Blind.Wolf.2009.DVDRIP.H264.FEEL-FREE.mp4_thumbs_%5B2010.07.30_20.55.39%5D.jpg
 
http://www.starshare.ro/bitbucket/Samurai.Avenger.The.Blind.Wolf.2009.DVDRIP.H264.FEEL-FREE.mp4_snapshot_00.08.42_%5B2010.07.30_20.55.48%5D.jpg
 
http://www.starshare.ro/bitbucket/Samurai.Avenger.The.Blind.Wolf.2009.DVDRIP.H264.FEEL-FREE.mp4_snapshot_00.19.24_%5B2010.07.30_20.55.50%5D.jpg
 
http://www.starshare.ro/bitbucket/Samurai.Avenger.The.Blind.Wolf.2009.DVDRIP.H264.FEEL-FREE.mp4_snapshot_00.32.15_%5B2010.07.30_20.56.24%5D.jpg
 
http://www.starshare.ro/bitbucket/Samurai.Avenger.The.Blind.Wolf.2009.DVDRIP.H264.FEEL-FREE.mp4_snapshot_00.32.32_%5B2010.07.30_20.56.22%5D.jpg